<?xml version="1.0" encoding="utf-8"?>
<!-- Generator: Adobe Illustrator 22.1.0, SVG Export Plug-In . SVG Version: 6.00 Build 0)  -->
<svg version="1.1" id="Layer_1" xmlns="http://www.w3.org/2000/svg" xmlns:xlink="http://www.w3.org/1999/xlink" x="0px" y="0px"
	 viewBox="0 0 250 220" style="enable-background:new 0 0 250 220;" xml:space="preserve">
<style type="text/css">
	.st0{fill:#8287ED;}
</style>
<path class="st0" d="M172.5,89.9l-22.7-3.5c-1-2.8-2.1-5.5-3.5-8.1l12.9-17.6c0.8-1.1,0.7-2.5-0.2-3.4l-18.7-18.7
	c-0.9-0.9-2.4-1-3.4-0.2l-17.8,13c-2.5-1.3-5.1-2.3-7.8-3.2l-3.6-23.1c-0.2-1.3-1.3-2.3-2.6-2.3H78.8c-1.3,0-2.4,1-2.6,2.3
	l-3.6,23.1c-2.6,0.9-5,1.9-7.4,3l-20-14.7c-1.1-0.8-2.5-0.7-3.4,0.2L23.1,55.4c-0.9,0.9-1,2.4-0.2,3.4l14.5,19.8
	c-1.2,2.4-2.3,4.9-3.2,7.4L9.6,89.9c-1.3,0.2-2.3,1.3-2.3,2.6v26.4c0,1.3,1,2.4,2.3,2.6l24.2,3.7c1,3.1,2.3,6.2,3.8,9l-14.7,20.1
	c-0.8,1.1-0.7,2.5,0.2,3.4l18.7,18.7c0.9,0.9,2.4,1,3.4,0.2l20.6-15.1c2.2,1,4.4,1.9,6.7,2.7l3.7,23.8c0.2,1.3,1.3,2.3,2.6,2.3h26.4
	c1.3,0,2.4-1,2.6-2.3l3.7-23.8c2.7-0.9,5.3-2,7.8-3.2l21.4,15.7c1.1,0.8,2.5,0.7,3.4-0.2l18.7-18.7c0.9-0.9,1-2.4,0.2-3.4
	l-15.8-21.6c1.2-2.5,2.3-5.2,3.1-7.9l22.3-3.4c1.3-0.2,2.3-1.3,2.3-2.6V92.4C174.7,91.2,173.8,90.1,172.5,89.9z M92,138.6
	c-17.9,0-32.4-14.5-32.4-32.4S74,73.8,92,73.8s32.4,14.5,32.4,32.4S109.9,138.6,92,138.6z"/>
<path class="st0" d="M241.5,38.2l-11.2-1.7c-0.5-1.4-1-2.7-1.7-4l6.4-8.7c0.4-0.5,0.3-1.2-0.1-1.7l-9.2-9.2
	c-0.4-0.4-1.2-0.5-1.7-0.1l-8.8,6.4c-1.2-0.6-2.5-1.2-3.9-1.6l-1.8-11.4c-0.1-0.7-0.6-1.1-1.3-1.1h-13.1c-0.6,0-1.2,0.5-1.3,1.1
	l-1.8,11.4c-1.3,0.4-2.5,0.9-3.7,1.5l-9.9-7.3c-0.5-0.4-1.2-0.3-1.7,0.1l-9.2,9.2c-0.4,0.4-0.5,1.2-0.1,1.7l7.2,9.8
	c-0.6,1.2-1.1,2.4-1.6,3.7L161,38.2c-0.7,0.1-1.1,0.6-1.1,1.3v13.1c0,0.6,0.5,1.2,1.1,1.3l12,1.8c0.5,1.6,1.1,3,1.9,4.5l-7.3,9.9
	c-0.4,0.5-0.3,1.2,0.1,1.7l9.2,9.2c0.4,0.4,1.2,0.5,1.7,0.1l10.2-7.5c1.1,0.5,2.2,1,3.3,1.3l1.8,11.8c0.1,0.7,0.6,1.1,1.3,1.1h13.1
	c0.6,0,1.2-0.5,1.3-1.1l1.8-11.8c1.3-0.4,2.6-1,3.9-1.6l10.6,7.7c0.5,0.4,1.2,0.3,1.7-0.1l9.2-9.2c0.4-0.4,0.5-1.2,0.1-1.7L229,59.3
	c0.6-1.2,1.1-2.5,1.5-3.9l11-1.7c0.7-0.1,1.1-0.6,1.1-1.3V39.4C242.7,38.8,242.2,38.3,241.5,38.2z M201.7,62.3c-8.9,0-16-7.2-16-16
	s7.2-16,16-16c8.9,0,16,7.2,16,16S210.6,62.3,201.7,62.3z"/>
<path class="st0" d="M241.5,164.3l-11.2-1.7c-0.5-1.4-1-2.7-1.7-4l6.4-8.7c0.4-0.5,0.3-1.2-0.1-1.7l-9.2-9.2
	c-0.4-0.4-1.2-0.5-1.7-0.1l-8.8,6.4c-1.2-0.6-2.5-1.2-3.9-1.6l-1.8-11.4c-0.1-0.7-0.6-1.1-1.3-1.1h-13.1c-0.6,0-1.2,0.5-1.3,1.1
	l-1.8,11.4c-1.3,0.4-2.5,0.9-3.7,1.5l-9.9-7.3c-0.5-0.4-1.2-0.3-1.7,0.1l-9.2,9.2c-0.4,0.4-0.5,1.2-0.1,1.7l7.2,9.8
	c-0.6,1.2-1.1,2.4-1.6,3.7l-12.2,1.9c-0.7,0.1-1.1,0.6-1.1,1.3v13.1c0,0.6,0.5,1.2,1.1,1.3l12,1.8c0.5,1.6,1.1,3,1.9,4.5l-7.3,9.9
	c-0.4,0.5-0.3,1.2,0.1,1.7l9.2,9.2c0.4,0.4,1.2,0.5,1.7,0.1l10.2-7.5c1.1,0.5,2.2,1,3.3,1.3l1.8,11.8c0.1,0.7,0.6,1.1,1.3,1.1h13.1
	c0.6,0,1.2-0.5,1.3-1.1l1.8-11.8c1.3-0.4,2.6-1,3.9-1.6l10.6,7.7c0.5,0.4,1.2,0.3,1.7-0.1l9.2-9.2c0.4-0.4,0.5-1.2,0.1-1.7
	l-7.8-10.7c0.6-1.2,1.1-2.5,1.5-3.9l11-1.7c0.7-0.1,1.1-0.6,1.1-1.3v-13.1C242.7,165,242.2,164.4,241.5,164.3z M201.7,188.4
	c-8.9,0-16-7.2-16-16c0-8.9,7.2-16,16-16c8.9,0,16,7.2,16,16C217.8,181.3,210.6,188.4,201.7,188.4z"/>
</svg>
