<svg id="Layer_1" data-name="Layer 1" xmlns="http://www.w3.org/2000/svg" viewBox="0 0 100 100"><defs><style>.cls-1{fill:#fff;}</style></defs><title>AdminIcon</title><path class="cls-1" d="M72.66,44.65,63,43.16a25.85,25.85,0,0,0-1.47-3.46L67,32.22a1.12,1.12,0,0,0-.09-1.46L59,22.82a1.13,1.13,0,0,0-1.46-.09L50,28.28a25.58,25.58,0,0,0-3.33-1.37l-1.51-9.83a1.12,1.12,0,0,0-1.09-1H32.85a1.12,1.12,0,0,0-1.09,1l-1.51,9.83a26.57,26.57,0,0,0-3.17,1.28L18.57,22a1.11,1.11,0,0,0-1.45.08L9.19,30a1.12,1.12,0,0,0-.08,1.46l6.16,8.44A26.74,26.74,0,0,0,13.93,43L3.46,44.65a1.12,1.12,0,0,0-1,1.09V57a1.13,1.13,0,0,0,1,1.1l10.3,1.59a26,26,0,0,0,1.6,3.85L9.1,72.07a1.13,1.13,0,0,0,.09,1.46l7.93,7.94a1.11,1.11,0,0,0,1.45.08l8.77-6.43a25.48,25.48,0,0,0,2.86,1.15l1.56,10.15a1.12,1.12,0,0,0,1.09,1H44.06a1.12,1.12,0,0,0,1.09-1l1.56-10.15A27.11,27.11,0,0,0,50,74.89l9.08,6.67a1.13,1.13,0,0,0,1.46-.09l7.93-7.94a1.12,1.12,0,0,0,.08-1.46l-6.72-9.2a24.16,24.16,0,0,0,1.32-3.34l9.47-1.46a1.13,1.13,0,0,0,1-1.1V45.74A1.12,1.12,0,0,0,72.66,44.65ZM38.45,65.4A13.8,13.8,0,1,1,52.23,51.6,13.79,13.79,0,0,1,38.45,65.4Z" transform="translate(-2.49 -2.5)"/><path class="cls-1" d="M102,16.62l-4.77-.74a12.87,12.87,0,0,0-.72-1.71l2.7-3.7a.55.55,0,0,0,0-.72L95.26,5.82a.55.55,0,0,0-.72,0L90.8,8.52a13.29,13.29,0,0,0-1.65-.68L88.4,3a.55.55,0,0,0-.54-.48H82.32a.55.55,0,0,0-.54.48L81,7.84a12.6,12.6,0,0,0-1.57.64L75.25,5.39a.55.55,0,0,0-.72,0L70.61,9.36a.55.55,0,0,0,0,.72l3.05,4.17A12.71,12.71,0,0,0,73,15.82l-5.18.8a.55.55,0,0,0-.48.54v5.56a.56.56,0,0,0,.48.54l5.09.78a12.83,12.83,0,0,0,.8,1.91l-3.1,4.23a.56.56,0,0,0,0,.73l3.92,3.93a.56.56,0,0,0,.72,0l4.34-3.19a12.23,12.23,0,0,0,1.41.57l.78,5a.56.56,0,0,0,.54.49h5.54a.56.56,0,0,0,.54-.49l.78-5a13.81,13.81,0,0,0,1.64-.68l4.49,3.3a.56.56,0,0,0,.72,0L100,30.91a.57.57,0,0,0,0-.73l-3.33-4.55A11.83,11.83,0,0,0,97.33,24l4.68-.72a.56.56,0,0,0,.48-.54V17.16A.55.55,0,0,0,102,16.62ZM85.09,26.88a6.83,6.83,0,1,1,6.81-6.82A6.81,6.81,0,0,1,85.09,26.88Z" transform="translate(-2.49 -2.5)"/><path class="cls-1" d="M102,81.35l-4.77-.73a12.34,12.34,0,0,0-.72-1.71l2.7-3.7a.56.56,0,0,0,0-.73l-3.92-3.93a.56.56,0,0,0-.72,0L90.8,73.26a11.92,11.92,0,0,0-1.65-.68l-.75-4.86a.56.56,0,0,0-.54-.49H82.32a.56.56,0,0,0-.54.49L81,72.58a14.28,14.28,0,0,0-1.57.63l-4.21-3.09a.56.56,0,0,0-.72,0l-3.92,3.93a.56.56,0,0,0,0,.73L73.62,79A12,12,0,0,0,73,80.55l-5.18.8a.56.56,0,0,0-.48.54v5.56a.55.55,0,0,0,.48.54l5.09.79a12.72,12.72,0,0,0,.8,1.9l-3.1,4.24a.55.55,0,0,0,0,.72l3.92,3.93a.55.55,0,0,0,.72,0l4.34-3.18A14.33,14.33,0,0,0,81,97l.78,5a.55.55,0,0,0,.54.48h5.54a.55.55,0,0,0,.54-.48l.78-5a12.38,12.38,0,0,0,1.64-.69l4.49,3.3a.55.55,0,0,0,.72,0L100,95.64a.56.56,0,0,0,0-.72l-3.33-4.55a12.34,12.34,0,0,0,.66-1.65L102,88a.55.55,0,0,0,.48-.54V81.89A.56.56,0,0,0,102,81.35ZM85.09,91.62a6.83,6.83,0,1,1,6.81-6.83A6.82,6.82,0,0,1,85.09,91.62Z" transform="translate(-2.49 -2.5)"/></svg>