<?xml version="1.0" encoding="utf-8"?>
<!-- Generator: Adobe Illustrator 22.1.0, SVG Export Plug-In . SVG Version: 6.00 Build 0)  -->
<svg version="1.1" id="Layer_1" xmlns="http://www.w3.org/2000/svg" xmlns:xlink="http://www.w3.org/1999/xlink" x="0px" y="0px"
	 viewBox="0 0 212 176" style="enable-background:new 0 0 212 176;" xml:space="preserve">
<style type="text/css">
	.st0{fill:#45DCE5;}
</style>
<g>
	<path class="st0" d="M106,6C50.8,6,6,50.8,6,106c0,23.9,8.4,45.8,22.3,63h155.3c14-17.2,22.3-39.1,22.3-63C206,50.8,161.2,6,106,6z
		 M105,20c5,0,9,4,9,9c0,5-4,9-9,9s-9-4-9-9C96,24,100,20,105,20z M39,102c-5,0-9-4-9-9c0-5,4-9,9-9s9,4,9,9C48,98,44,102,39,102z
		 M57,56c-5,0-9-4-9-9c0-5,4-9,9-9s9,4,9,9C66,52,62,56,57,56z M125.5,56.6L115,121.4c5.4,3.1,9,8.9,9,15.6c0,9.9-8.1,18-18,18
		s-18-8.1-18-18c0-8.9,6.5-16.3,14.9-17.7l10.5-64.6c0.4-2.7,3-4.6,5.7-4.1l2.3,0.4C124.1,51.3,126,53.9,125.5,56.6z M154,56
		c-5,0-9-4-9-9c0-5,4-9,9-9s9,4,9,9C163,52,159,56,154,56z M172,102c-5,0-9-4-9-9c0-5,4-9,9-9s9,4,9,9C181,98,177,102,172,102z"/>
</g>
</svg>
