<svg id="Layer_1" data-name="Layer 1" xmlns="http://www.w3.org/2000/svg" viewBox="0 0 100 80"><defs><style>.cls-1{fill:#fff;}</style></defs><title>DashboardIcon</title><path class="cls-1" d="M52.5,2.5c-27.61,0-50,22-50,49.08A48.34,48.34,0,0,0,13.67,82.5H91.33A48.34,48.34,0,0,0,102.5,51.58C102.5,24.47,80.11,2.5,52.5,2.5ZM52,9.37a4.42,4.42,0,1,1-4.5,4.42A4.46,4.46,0,0,1,52,9.37ZM19,49.62a4.42,4.42,0,1,1,4.5-4.42A4.46,4.46,0,0,1,19,49.62ZM28,27a4.42,4.42,0,1,1,4.5-4.42A4.46,4.46,0,0,1,28,27Zm34.26.31L57,59.16a8.79,8.79,0,0,1,4.49,7.63A9,9,0,1,1,51,58.1L56.2,26.39a2.5,2.5,0,0,1,2.87-2l1.12.18A2.46,2.46,0,0,1,62.26,27.35ZM76.5,27A4.42,4.42,0,1,1,81,22.62,4.46,4.46,0,0,1,76.5,27Zm9,22.58A4.42,4.42,0,1,1,90,45.2,4.46,4.46,0,0,1,85.5,49.62Z" transform="translate(-2.5 -2.5)"/></svg>