<svg id="Layer_1" data-name="Layer 1" xmlns="http://www.w3.org/2000/svg" viewBox="0 0 83.27 100"><defs><style>.cls-1{fill:#fff;}</style></defs><title>LockIcon</title><path class="cls-1" d="M86.28,43.89H80.2V28.94C80.2,14.22,68,2.25,53,2.25s-27.22,12-27.22,26.69v15H19.33a8.16,8.16,0,0,0-8.16,8.16v42a8.16,8.16,0,0,0,8.16,8.16h67a8.16,8.16,0,0,0,8.16-8.16v-42A8.16,8.16,0,0,0,86.28,43.89ZM55,74.73V85.5a2,2,0,0,1-2,2H52a2,2,0,0,1-2-2V74.73a7.5,7.5,0,1,1,5,0ZM69.53,43.89H36.43V28.94h.1a16.46,16.46,0,0,1,32.9,0h.1Z" transform="translate(-11.17 -2.25)"/></svg>