<svg id="Layer_1" data-name="Layer 1" xmlns="http://www.w3.org/2000/svg" xmlns:xlink="http://www.w3.org/1999/xlink" viewBox="0 0 370 190"><defs><style>.cls-1{fill:url(#linear-gradient);}.cls-2{opacity:0.2;}.cls-3{fill:url(#linear-gradient-2);}.cls-4{fill:url(#linear-gradient-3);}.cls-5{opacity:0.12;}.cls-6{fill:url(#linear-gradient-4);}.cls-7{opacity:0.05;}.cls-8{fill:url(#linear-gradient-5);}</style><linearGradient id="linear-gradient" y1="115" x2="370" y2="115" gradientUnits="userSpaceOnUse"><stop offset="0" stop-color="#ff6fb4"/><stop offset="1" stop-color="#ff946e"/></linearGradient><linearGradient id="linear-gradient-2" x1="15" y1="40" x2="365" y2="40" xlink:href="#linear-gradient"/><linearGradient id="linear-gradient-3" x1="25" y1="35" x2="355" y2="35" xlink:href="#linear-gradient"/><linearGradient id="linear-gradient-4" x1="35" y1="30" x2="345" y2="30" xlink:href="#linear-gradient"/><linearGradient id="linear-gradient-5" x1="45" y1="25" x2="335" y2="25" xlink:href="#linear-gradient"/></defs><title>OutForDeliveryBackground</title><rect class="cls-1" y="40" width="370" height="150" rx="5" ry="5"/><g class="cls-2"><path class="cls-3" d="M365,45H15V40a5,5,0,0,1,5-5H360a5,5,0,0,1,5,5Z" transform="translate(-5 -5)"/></g><g class="cls-2"><path class="cls-4" d="M355,45H25V30a5,5,0,0,1,5-5H350a5,5,0,0,1,5,5Z" transform="translate(-5 -5)"/></g><g class="cls-5"><path class="cls-6" d="M345,45H35V20a5,5,0,0,1,5-5H340a5,5,0,0,1,5,5Z" transform="translate(-5 -5)"/></g><g class="cls-7"><path class="cls-8" d="M335,45H45V10a5,5,0,0,1,5-5H330a5,5,0,0,1,5,5Z" transform="translate(-5 -5)"/></g></svg>