<?xml version="1.0" encoding="utf-8"?>
<!-- Generator: Adobe Illustrator 22.1.0, SVG Export Plug-In . SVG Version: 6.00 Build 0)  -->
<svg version="1.1" id="Layer_1" xmlns="http://www.w3.org/2000/svg" xmlns:xlink="http://www.w3.org/1999/xlink" x="0px" y="0px"
	 viewBox="0 0 137 48" style="enable-background:new 0 0 137 48;" xml:space="preserve">
<style type="text/css">
	.st0{fill:#09CBFF;}
	.st1{fill:none;}
	.st2{fill:#FFFFFF;}
	.st3{font-family:'Roboto-Light';}
	.st4{font-size:36px;}
</style>
<g id="Shape_1_copy_xA0_Clipping_Path">
	<g>
		<path class="st0" d="M8.6,9.6v29.9h11.7l0-10.1h8l0-9.6h-9.6v8h-2.3l0-10.3h14.1l0,14.1h-8v1.6l7.2,6.3h8.7V9.6H8.6z M20.4,21.4
			h6.4l0,6.4h-6.4V21.4z M37,38h-6.5l-5.4-4.7h7.2l0-17.3H14.9l0,13.5h3.8l0,8.5h-8.5V11.2H37V38z"/>
	</g>
</g>
<rect x="47.7" y="9.2" class="st1" width="85.3" height="31.8"/>
<text transform="matrix(1 0 0 1 47.7261 36.1968)" class="st2 st3 st4">route</text>
</svg>
