<svg id="Layer_1" data-name="Layer 1" xmlns="http://www.w3.org/2000/svg" viewBox="0 0 130 130"><defs><style>.cls-1{fill:#1a1e37;}</style></defs><title>RouteCheckmark</title><path class="cls-1" d="M69.5,5.5a65,65,0,1,0,65,65A65,65,0,0,0,69.5,5.5ZM88.68,62.32l-19,19-4.37,4.37h0a1.16,1.16,0,0,1-1.64,0l-4.57-4.57S59.05,81,59,81l-9.18-9.18a1.15,1.15,0,0,1,0-1.61L54.2,65.8a1.13,1.13,0,0,1,1.6,0l8.49,8.49L82.48,56.11a1.15,1.15,0,0,1,1.63,0l4.57,4.57A1.16,1.16,0,0,1,88.68,62.32Z" transform="translate(-4.5 -5.5)"/></svg>