<svg id="Layer_1" data-name="Layer 1" xmlns="http://www.w3.org/2000/svg" viewBox="0 0 130 130"><defs><style>.cls-1{fill:#1a1e37;}</style></defs><title>RouteInTransitIcon</title><polygon class="cls-1" points="39 64 45 56.29 45 64 39 64"/><path class="cls-1" d="M71,6a65,65,0,1,0,65,65A65,65,0,0,0,71,6ZM49,96.5A7.5,7.5,0,1,1,56.5,89,7.5,7.5,0,0,1,49,96.5Zm42,0A7.5,7.5,0,1,1,98.5,89,7.5,7.5,0,0,1,91,96.5ZM106,89h-6a9,9,0,0,0-18,0H58a9,9,0,0,0-18,0H35V73L50,54h8V45h48Z" transform="translate(-6 -6)"/></svg>